<svg xmlns="http://www.w3.org/2000/svg" xmlns:xlink="http://www.w3.org/1999/xlink" width="979" height="980" viewBox="0 0 979 980">
  <defs>
    <clipPath id="clip-_11_1">
      <rect width="979" height="980"/>
    </clipPath>
  </defs>
  <g id="_11_1" data-name="11 – 1" clip-path="url(#clip-_11_1)">
    <rect width="979" height="980" fill="#fff"/>
    <g id="_15bcd6632cb6edc0e13e34a3c634186f" data-name="15bcd6632cb6edc0e13e34a3c634186f" transform="translate(-10 -10)">
      <path id="Path_336" data-name="Path 336" d="M10,989.5l490,.5V10H10ZM192.7,745H71.9c0-36.2-.7-71.9.8-107.5.2-4.9,11.3-12.8,17.7-13.1,27.5-1.5,55.1-1.9,82.5.2,7,.5,18.5,11.3,18.9,18C193.8,675.4,192.7,708.5,192.7,745ZM316.3,133.4c35.9,0,70-.9,104,.8,6.1.3,16.3,11.1,16.7,17.5a735.582,735.582,0,0,1,.1,85.3c-.3,6-9.3,16.2-14.7,16.5-34.9,1.5-70,.8-106,.8V133.4ZM436.7,480.8c-.4,6.4-12.5,16.8-19.7,17.3-31.7,1.9-63.5.8-100.3.8,0-37.8-.4-74,.7-110.2.1-3.7,9.4-10.1,14.6-10.3,33.6-.9,67.2-.5,105.7-.5C437.7,415.6,438.8,448.3,436.7,480.8ZM316.3,623.4c36.7,0,70.1-.9,103.3.8,6.4.3,17.1,11.2,17.4,17.6,1.8,33.4.8,67,.8,103.2H316.3ZM72.4,149.6c.2-5.7,8-15.7,12.6-15.8,35.8-1.3,71.7-.7,108.7-.7V255H71.9C71.9,218.3,71.3,184,72.4,149.6Zm-.1,242.2c.1-4.7,7.9-13.1,12.3-13.2,35.8-1.1,71.7-.6,109.2-.6V500H71.8C71.7,464.5,71.3,428.1,72.3,391.8ZM561.3,990H683.8V745H867.6V990l122.3-.3.2-550.9H561.3Zm0-673.7v61.3H990V316.3Z" fill="#83b735"/>
    </g>
  </g>
</svg>
