<svg xmlns="http://www.w3.org/2000/svg" xmlns:xlink="http://www.w3.org/1999/xlink" width="980" height="985" viewBox="0 0 980 985">
  <defs>
    <clipPath id="clip-_898">
      <rect width="980" height="985"/>
    </clipPath>
  </defs>
  <g id="_898" data-name="898" clip-path="url(#clip-_898)">
    <rect width="980" height="985" fill="#fff"/>
    <g id="_442f1ed4ce4737281288e4aaf764b982" data-name="442f1ed4ce4737281288e4aaf764b982" transform="translate(-10 -7)">
      <g id="Group_278" data-name="Group 278">
        <path id="Path_341" data-name="Path 341" d="M756.7,150V56.6a46.7,46.7,0,0,0-93.4,0V150a46.7,46.7,0,0,0,93.4,0Z" fill="#83b735"/>
        <path id="Path_342" data-name="Path 342" d="M301.7,196.7a35,35,0,0,0,35-35.1V45.1a35,35,0,0,0-35-35.1H278.4a35,35,0,0,0-35,35.1V161.5a35,35,0,0,0,35,35.1h23.3Z" fill="#83b735"/>
        <path id="Path_343" data-name="Path 343" d="M39.4,103.3c-16.2,0-29.4,13.6-29.4,30.2V959.6c0,16.8,13.1,30.3,29.3,30.3H960.6c16.2,0,29.4-13.6,29.4-30.3v-826c0-16.7-13.2-30.2-29.4-30.2H803.3v87.3c0,29.3-31.4,52.7-70,52.7H686.7c-38.8,0-70-23.6-70-52.7V103.4H383.3v87.3c0,29.3-31.4,52.7-70,52.7H266.7c-38.8,0-70-23.6-70-52.7V103.4H39.4ZM803.3,430h140V570h-140Zm0,186.7h140v140h-140Zm0,186.6h140V925.8c0,9.6-9,17.5-20.1,17.5H803.3ZM616.7,430h140V570h-140Zm0,186.7h140v140h-140Zm0,186.6h140v140h-140ZM430,430H570V570H430Zm0,373.3H570v140H430ZM243.3,430h140V570h-140V430Zm0,186.7h140v140h-140v-140Zm0,186.6h140v140h-140v-140Zm-46.6,140H76.7c-11.1,0-20.1-7.8-20.1-17.5V803.3h140v140Zm0-186.6H56.7v-140h140Zm0-186.7H56.7V430h140Z" fill="#83b735"/>
      </g>
    </g>
  </g>
</svg>
