<svg xmlns="http://www.w3.org/2000/svg" xmlns:xlink="http://www.w3.org/1999/xlink" width="924" height="985" viewBox="0 0 924 985">
  <defs>
    <clipPath id="clip-_899">
      <rect width="924" height="985"/>
    </clipPath>
  </defs>
  <g id="_899" data-name="899" clip-path="url(#clip-_899)">
    <rect width="924" height="985" fill="#fff"/>
    <g id="_2c0aa3dc031ca9241c63bbd22d060e75" data-name="2c0aa3dc031ca9241c63bbd22d060e75" transform="translate(-37.6 -7)">
      <path id="Path_344" data-name="Path 344" d="M815.3,471.5a7,7,0,1,0-7-7A6.957,6.957,0,0,0,815.3,471.5Zm0-28a7,7,0,1,0-7-7A6.957,6.957,0,0,0,815.3,443.5Zm-28-56.1a7,7,0,0,0,0-14,7,7,0,0,0,0,14Zm28,28a6.957,6.957,0,0,0,7-7,7,7,0,1,0-14,0A6.957,6.957,0,0,0,815.3,415.4Zm0,196.2a6.957,6.957,0,0,0,7-7,7,7,0,0,0-14,0A6.957,6.957,0,0,0,815.3,611.6Zm-28-196.2a6.873,6.873,0,0,0,6.9-7,6.95,6.95,0,1,0-6.9,7Zm28,168.3a6.98,6.98,0,0,0,7-7.1,7,7,0,0,0-14,0A7.042,7.042,0,0,0,815.3,583.7Zm0-56.2a7,7,0,1,0-7-7A6.957,6.957,0,0,0,815.3,527.5Zm0,28.1a7,7,0,1,0-7-7A6.957,6.957,0,0,0,815.3,555.6Zm0-56.1a7,7,0,1,0-7-7A6.957,6.957,0,0,0,815.3,499.5Zm28-28a7,7,0,0,0,0-14,7,7,0,0,0,0,14Zm0-56.1a6.957,6.957,0,0,0,7-7,7.107,7.107,0,0,0-7-7.1,6.9,6.9,0,0,0-6.9,7.1A6.812,6.812,0,0,0,843.3,415.4Zm0,28.1a7,7,0,0,0,0-14,7,7,0,0,0,0,14Zm0-56.1a7,7,0,0,0,0-14,7,7,0,0,0,0,14ZM275.8,948H191.7a14.041,14.041,0,0,0-14,14v14a14.041,14.041,0,0,0,14,14h84.1a13.977,13.977,0,0,0,14-14V962A13.914,13.914,0,0,0,275.8,948ZM815.3,387.4a7,7,0,1,0-7-7A6.957,6.957,0,0,0,815.3,387.4Zm28,224.2a6.95,6.95,0,1,0,0-13.9,6.95,6.95,0,0,0,0,13.9Zm0-56a7,7,0,0,0,0-14,7,7,0,0,0,0,14Zm0-56.1a7,7,0,0,0,0-14,7,7,0,0,0,0,14Zm0,28a7,7,0,0,0,0-14,7,7,0,0,0,0,14Zm0,56.2a7,7,0,1,0,0-14,7,7,0,0,0,0,14Zm28-126.2a7,7,0,0,0,0,14,7,7,0,1,0,0-14Zm0,56.1a7,7,0,0,0,0,14,7,7,0,1,0,0-14Zm0-28.1a7,7,0,0,0,0,14,7,7,0,1,0,0-14Zm0,56a7,7,0,0,0,0,14,7,7,0,1,0,0-14Zm0,28.1a6.936,6.936,0,0,0-7,6.9,7.052,7.052,0,1,0,7-6.9Zm35.1-350.3H593.6c-8-26.8-27.5-47.8-52.3-59.6L685.2,48.3a13.97,13.97,0,0,0,5.2-19.1l-7-12.2a13.938,13.938,0,0,0-19.1-5.1L486.9,149c-.1-.3-.2-.7-.5-.8L400.5,76.1a13.959,13.959,0,0,0-19.7,1.7l-9,10.8a13.967,13.967,0,0,0,1.7,19.7l70.6,59.3a98.369,98.369,0,0,0-37.6,51.7H93.7a56.078,56.078,0,0,0-56.1,56.1V863.9A56.078,56.078,0,0,0,93.7,920H906.5a56.057,56.057,0,0,0,56-56.1V275.3A56.185,56.185,0,0,0,906.4,219.3ZM500,191.2c20.5,0,37.7,11.6,47.5,28h-95C462.3,202.8,479.5,191.2,500,191.2ZM920.4,849.9a28.018,28.018,0,0,1-28,28H107.6a27.954,27.954,0,0,1-28-28V289.4a27.954,27.954,0,0,1,28-28H892.3a27.954,27.954,0,0,1,28,28V849.9ZM871.3,373.4a7,7,0,0,0,0,14,7,7,0,1,0,0-14Zm0,224.2a6.936,6.936,0,0,0-7,6.9,7.052,7.052,0,1,0,7-6.9Zm0-196.2a7.05,7.05,0,1,0,7.1,7.1A7.127,7.127,0,0,0,871.3,401.4Zm0,28.1a7,7,0,0,0,0,14,7,7,0,1,0,0-14Zm-645.6,91c-3.3,0-5.9,3.1-5.9,7v7c0,3.9,2.7,7,5.9,7,3.3,0,5.9-3.1,5.9-7v-7C231.6,523.7,229,520.5,225.7,520.5Zm561.6,63.2a7,7,0,1,0-7-7.1A7.042,7.042,0,0,0,787.3,583.7Zm0-28.1a7,7,0,0,0,0-14,7,7,0,0,0,0,14Zm0-28.1a7,7,0,0,0,0-14,7,7,0,0,0,0,14Zm0-56a7,7,0,0,0,0-14,7,7,0,0,0,0,14Zm42,196.2a49.05,49.05,0,1,0,49.1,49.1A49.122,49.122,0,0,0,829.3,667.7Zm0,84a35.05,35.05,0,1,1,35-35A35.06,35.06,0,0,1,829.3,751.7Zm-42-252.2a7,7,0,0,0,0-14,7,7,0,0,0,0,14ZM682.1,331.4H191.7a56.143,56.143,0,0,0-56.1,56.1V751.8a56.142,56.142,0,0,0,56.1,56.1H682.1a56.078,56.078,0,0,0,56.1-56.1V387.4A55.93,55.93,0,0,0,682.1,331.4Zm14.1,406.4a28.018,28.018,0,0,1-28,28H205.8a27.954,27.954,0,0,1-28-28V401.4a27.954,27.954,0,0,1,28-28H668.3a28.018,28.018,0,0,1,28,28l-.1,336.4Zm91.1-126.2a6.95,6.95,0,1,0-7-7A6.957,6.957,0,0,0,787.3,611.6ZM255.9,415.4H226.4a7.021,7.021,0,0,0-6.6,7v77.1c0,3.9,2.6,7,5.9,7s5.9-3.1,5.9-7v-70h24.3c3.3,0,5.9-3.1,5.9-7S259.1,415.4,255.9,415.4Zm531.4,28.1a7,7,0,0,0,0-14,7,7,0,0,0,0,14Zm21,504.5H724.2a14.041,14.041,0,0,0-14,14v14a14.041,14.041,0,0,0,14,14h84.1a13.977,13.977,0,0,0,14-14V962A13.914,13.914,0,0,0,808.3,948Z" fill="#83b735"/>
    </g>
  </g>
</svg>
