<?xml version="1.0" encoding="utf-8"?>
<!-- Svg Vector Icons : http://www.onlinewebfonts.com/icon -->
<!DOCTYPE svg PUBLIC "-//W3C//DTD SVG 1.1//EN" "http://www.w3.org/Graphics/SVG/1.1/DTD/svg11.dtd">
<svg version="1.1" xmlns="http://www.w3.org/2000/svg" xmlns:xlink="http://www.w3.org/1999/xlink" x="0px" y="0px" viewBox="0 0 1000 1000" enable-background="new 0 0 1000 1000" xml:space="preserve">
<metadata> Svg Vector Icons : http://www.onlinewebfonts.com/icon </metadata>
<g><path d="M963.5,508l-155-155L491.9,34.7c-18.3-18.3-45-28.3-70-25l-305,26.7c-43.3,3.3-76.7,38.3-80,80l-26.7,305c-1.7,26.7,6.7,51.7,25,70l473.3,473.3c35,35,91.7,35,125,0L965.2,633C998.5,599.7,998.5,543,963.5,508z M306.9,309.7c-28.3,28.3-76.7,28.3-105,0c-28.3-28.3-28.3-76.7,0-105c28.3-28.3,76.7-28.3,105,0C336.9,233,336.9,281.4,306.9,309.7z M876.9,528c-3.3,3.3-8.3,5-13.3,5c-5,0-8.3-1.7-13.3-5l-260-260c-6.7-6.7-6.7-18.3,0-25c6.7-6.7,18.3-6.7,25,0l260,260C883.5,509.7,883.5,519.7,876.9,528z"/></g>
</svg>