<?xml version="1.0" encoding="utf-8"?>
<!-- Svg Vector Icons : http://www.onlinewebfonts.com/icon -->
<!DOCTYPE svg PUBLIC "-//W3C//DTD SVG 1.1//EN" "http://www.w3.org/Graphics/SVG/1.1/DTD/svg11.dtd">
<svg version="1.1" xmlns="http://www.w3.org/2000/svg" xmlns:xlink="http://www.w3.org/1999/xlink" x="0px" y="0px" viewBox="0 0 1000 1000" enable-background="new 0 0 1000 1000" xml:space="preserve">
<metadata> Svg Vector Icons : http://www.onlinewebfonts.com/icon </metadata>
<g><path d="M319.2,548.8H141.4C69,548.8,10,607.8,10,680.3v177.8C10,924.7,64.2,979,130.9,979h188.3c66.7,0,120.9-54.2,120.9-120.9V669.7C440.2,603.1,385.9,548.8,319.2,548.8z M377.1,858.1c0,31.9-25.9,57.9-57.9,57.9H130.9c-31.9,0-57.9-26-57.9-57.9V680.3c0-37.7,30.7-68.4,68.4-68.4h177.8c31.9,0,57.9,26,57.9,57.9V858.1z"/><path d="M781,548.8H603.2c-72.5,0-131.4,59-131.4,131.4v177.8c0,66.7,54.2,120.9,120.9,120.9H781c66.7,0,120.9-54.2,120.9-120.9V669.7C901.9,603.1,847.7,548.8,781,548.8z M838.8,858.1c0,31.9-26,57.9-57.9,57.9H592.7c-31.9,0-57.9-26-57.9-57.9V680.3c0-37.7,30.7-68.4,68.4-68.4H781c31.9,0,57.9,26,57.9,57.9V858.1L838.8,858.1z"/><path d="M319.2,84.5H141.4C69,84.5,10,143.5,10,216v177.8c0,66.7,54.2,120.9,120.9,120.9h188.3c66.7,0,120.9-54.2,120.9-120.9V205.4C440.2,138.8,385.9,84.5,319.2,84.5z M377.1,393.8c0,31.9-25.9,57.9-57.9,57.9H130.9c-31.9,0-57.9-26-57.9-57.9V216c0-37.7,30.7-68.4,68.4-68.4h177.8c31.9,0,57.9,26,57.9,57.9V393.8z"/><path d="M959.4,197.6L841.1,64.9C816.3,37,780.5,21,742.9,21c-32.3,0-63.3,11.8-87.4,33.2L522.8,172.5c-24,21.4-38.3,51-40.2,83.3c-1.9,32.3,8.9,63.4,30.3,87.4l125.3,140.6c22.9,25.6,55.8,40.4,90.3,40.4c29.7,0,58.3-10.8,80.4-30.5l140.6-125.3c24-21.4,38.3-51,40.2-83.3C991.7,252.7,980.9,221.7,959.4,197.6z M907.7,321.3L767.1,446.6c-10.5,9.4-24.2,14.6-38.4,14.6c-16.6,0-32.4-7-43.3-19.3L560.1,301.3c-10.2-11.5-15.3-26.3-14.5-41.8c0.9-15.5,7.7-29.7,19.2-39.9l132.7-118.3c12.5-11.1,28.6-17.2,45.4-17.2c19.6,0,38.2,8.3,51.1,22.8l118.3,132.7c10.2,11.5,15.3,26.3,14.5,41.8C925.9,296.9,919.1,311.1,907.7,321.3z"/></g>
</svg>