<svg xmlns="http://www.w3.org/2000/svg" xmlns:xlink="http://www.w3.org/1999/xlink" width="980" height="985" viewBox="0 0 980 985">
  <defs>
    <clipPath id="clip-_897">
      <rect width="980" height="985"/>
    </clipPath>
  </defs>
  <g id="_897" data-name="897" clip-path="url(#clip-_897)">
    <rect width="980" height="985" fill="#fff"/>
    <g id="_2226e78cf3e6b08885e7c0bbb610e44e" data-name="2226e78cf3e6b08885e7c0bbb610e44e" transform="translate(-9.996 -7.56)">
      <g id="Group_277" data-name="Group 277" transform="translate(0 511)">
        <path id="Path_340" data-name="Path 340" d="M455.33-499.39c-113.7,10.58-219.32,60.41-301.08,142.17C41.51-244.87-9.67-85.38,16.88,70.45c8.08,47.71,21.74,89.46,44.06,135.06,23.66,48.29,53.87,90.42,92.35,129.09C262.57,444.26,415.13,495.82,567.88,474.85c183.54-25.2,338.79-154.49,397.85-331.29,8.66-25.97,16.16-57.72,20.97-88.5,4.42-29.24,4.42-100.81-.19-132.36-7.5-53.1-22.7-101.58-46.36-150.06-24.43-49.83-54.06-90.81-95.23-131.78C742.57-460.92,598.85-512.67,455.33-499.39Zm71,171.03c23.66,7.31,46.36,29.44,54.06,52.91,10.58,31.74,2.12,65.22-22.13,88.31-20.01,19.05-45.4,27.13-71.38,22.51-45.98-8.27-77.15-51.56-69.45-96.39C426.28-312.59,476.69-343.56,526.33-328.36Zm2.5,205.85A67.967,67.967,0,0,1,561.92-90l5,10.77.96,147.75.96,147.95,5.19,4.42c6.73,5.77,11.93,4.42,18.85-5.19,9.81-13.47,17.89-40.59,22.13-73.49,1.73-12.89,9.04-20.39,20.2-20.39,16.74,0,21.74,8.46,19.05,32.9-9.24,82.34-56.56,137.94-130.63,152.95-21.36,4.23-38.09,3.08-52.52-4.04-13.08-6.35-26.74-20.2-32.71-33.09-4.23-9.23-4.23-9.43-5.19-156.41-.96-136.79-1.15-147.75-4.42-152.56-6.73-10.39-17.12-4.43-27.13,15.39C395.5-10.54,389.54,10.82,388,26.21c-1.73,17.12-4.23,23.66-11.16,29.43-5,4.23-7.31,4.81-13.66,4.04a22.655,22.655,0,0,1-12.5-6.16c-4.43-4.42-5-6.16-4.62-16.93a237.437,237.437,0,0,1,3.46-27.51c12.31-65.41,49.25-110.43,106.2-129.47C487.65-131.17,508.43-131.74,528.83-122.51Z" fill="#83b735"/>
      </g>
    </g>
  </g>
</svg>
