<svg xmlns="http://www.w3.org/2000/svg" xmlns:xlink="http://www.w3.org/1999/xlink" width="980" height="985" viewBox="0 0 980 985">
  <defs>
    <clipPath id="clip-_896">
      <rect width="980" height="985"/>
    </clipPath>
  </defs>
  <g id="_896" data-name="896" clip-path="url(#clip-_896)">
    <rect width="980" height="985" fill="#fff"/>
    <g id="a847c0a6a229912db4e6c539f3db5320" transform="translate(-10.2 -7.9)">
      <path id="Path_337" data-name="Path 337" d="M990,233.8v10.1a6.718,6.718,0,0,0-.6,1.2c-.2,4.4-.3,8.9-.7,13.3-.7,7.1-1.2,14.3-2.5,21.3a242.613,242.613,0,0,1-10.9,40.1A239.688,239.688,0,0,1,956,359.6c-10.4,16.8-22.4,32.3-37,45.6-6.7,6-13.5,12-20.6,17.6-15.7,12.2-33.1,21.6-51.5,29.1A228.111,228.111,0,0,1,810.8,463a170.9,170.9,0,0,1-36.3,4.5c-11.5.1-23.1.2-34.6,0-7.8-.2-14.1,2.8-19.4,8.1-33.6,33.7-67,67.6-100.7,101.2Q435.3,761.6,250.5,946.2c-3.6,3.6-7.3,7-11,10.4a139.072,139.072,0,0,1-30.5,21,120.953,120.953,0,0,1-38.9,12.7c-3.5.5-7,1.2-10.5,1.8h-28c-2.9-.4-5.8-.7-8.6-1.2-14.2-2.8-27.8-7.1-40.5-14.3A137.007,137.007,0,0,1,42,942.1a140.327,140.327,0,0,1-24.3-46.2,119.389,119.389,0,0,1-5.3-43.2A157.043,157.043,0,0,1,15.2,831,128.98,128.98,0,0,1,30,792.8c6.3-11,13.4-21.4,22.3-30.4Q287.8,526.6,523.5,291.1l2.5-2.5c5.6-6,7.4-13.2,6.7-21.1-.8-9.5-1.9-18.9-2.2-28.4a161.685,161.685,0,0,1,1.1-20.9c1.1-10.1,2.1-20.2,4.3-30.1a221.772,221.772,0,0,1,22.5-59.8,231.83,231.83,0,0,1,35.7-48.8,191.917,191.917,0,0,1,21.6-19.7c9.2-7.1,19.1-13.4,28.9-19.7a164.177,164.177,0,0,1,38-17.7c11-3.6,22.2-7.1,33.6-9.3a277.3,277.3,0,0,1,35.2-4.3c13.1-.9,26.1,1,39,2.9,7.4,1.1,14.4,3.7,19.9,9,8.9,8.6,10.5,20.5,6.2,31.9-3.3,8.8-9.1,15.9-15.5,22.5-12.6,12.9-25.5,25.5-38.2,38.3l-40.7,40.7c-6,6-11.6,12.2-16,19.5-6.6,11.1-9.1,23-6.1,35.8,2.8,11.7,9.2,21.3,17.4,29.6,16.9,17.2,34.3,33.9,51.4,50.9A63.42,63.42,0,0,0,788.1,303a43.644,43.644,0,0,0,25.4,3.5c12.5-1.9,23-8.4,31.9-17.2,16.8-16.6,33.4-33.5,50.2-50.1,13.7-13.6,27.4-27.2,41.6-40.3,7.4-6.8,16.4-10.5,26.9-8.4,11.5,2.3,20.6,8.5,23.3,21.5,1.3,6.1,1.3,12.4,1.9,18.7C989.5,231.7,989.8,232.7,990,233.8ZM143,793c-38.3-.5-67,31.5-69.2,64-2.9,44.4,32.5,74.7,67.8,75.3,40.1.7,70.6-31.7,71-69.1C212.9,824.5,181.4,792.4,143,793Z" fill="#83b735"/>
      <path id="Path_338" data-name="Path 338" d="M135.2,7.9c3.9.8,7.8,1.3,11.5,2.4,6.5,1.9,13.1,3.7,19.3,6.2,14.5,6,26.6,15.5,37.6,26.6,6.4,6.5,13.1,12.7,19.6,19.1l19.2,18.6c17,16.8,34.1,33.5,51,50.4,13.7,13.7,27.2,27.5,40.8,41.3,8.7,8.8,17.3,17.7,26,26.6l24.7,25.3,24.5,25.1,32.1,32.7c3.6,3.7,7.1,7.7,10.8,11.7-12.1,11.9-24.3,23.8-36.7,35.9-4.1-4.6-8.2-9.1-12.3-13.6a17.046,17.046,0,0,0-1.9-1.9c-15.7-15.7-31.4-31.3-47-47Q259,171.6,163.5,76c-4.5-4.5-9.2-9-15.6-11.1-8.8-2.9-16.9,5.2-18,11.4-1.4,7.4,2.6,12.8,7.1,17.6,8.8,9.2,17.9,18,26.9,27Q269.2,226.2,374.5,331.4c6.9,6.9,14.1,13.6,21.4,20.6-14.8,14.2-29.4,28.2-44.3,42.6-1.4-1.9-2.6-3.7-4-5.4a58.878,58.878,0,0,0-4.4-5.5q-91.8-91.8-183.5-183.6c-20.5-20.6-40.9-41.4-61.5-61.9a51.2,51.2,0,0,0-11-8.1c-10.4-5.8-20.6,2.6-21.5,12.1-.4,4.2,1.8,8.1,4.2,11.6a46.112,46.112,0,0,0,5.1,5.7Q198.9,283.4,322.9,407.3c3.3,3.2,6.9,6.1,10.3,9-8,7.7-15.8,15.3-23.7,22.8-4.5,4.3-9.2,8.4-13.7,12.6-1.4,1.3-2.3.9-3.4-.3-6.9-6.8-14-13.5-20.9-20.3Q157.95,317.7,44.6,204.1a121.544,121.544,0,0,1-19.8-26.8,127.166,127.166,0,0,1-13.3-36.2c-.6-2.6-.9-5.3-1.3-8V109.9l.6-4.2c1.9-9.3,4.2-18.4,8.1-27.2A117.608,117.608,0,0,1,39.5,46.2,118.908,118.908,0,0,1,67,23.3,112.09,112.09,0,0,1,102.4,9.7L112,7.9Z" fill="#83b735"/>
      <path id="Path_339" data-name="Path 339" d="M604.3,658.8l54.9-54.9a21.413,21.413,0,0,1,2.6,1.9c7.4,7.2,14.9,14.3,22.2,21.5l86.4,86.4c8.9,8.9,17.6,18,26.4,27,5.5,5.5,11.5,10.4,19,12.8a59.789,59.789,0,0,0,11.9,2.4,84.816,84.816,0,0,1,32.1,10.8c9.5,5.3,17.4,12.5,24.5,20.5a186.476,186.476,0,0,1,14.2,18.9c11.1,16,22.2,32,32.8,48.3,11.9,18.2,23.3,36.8,34.8,55.3,4.5,7.3,9.1,14.5,13.3,22,6.2,11.3,8.3,24,.4,34.8A49.542,49.542,0,0,1,959,982.7c-4.8,2-10,.5-14.9-.5-9.6-2.1-17.6-7.8-26.2-12-6.5-3.2-12.8-7-19.1-10.7-9.4-5.5-18.8-10.9-28-16.8-10.6-6.8-21-13.7-31.2-21-10.5-7.5-20.8-15.2-30.8-23.2a318.463,318.463,0,0,1-25-21.5c-13.4-13-21.7-29.1-26.1-47.2-1.4-5.6-2.5-11.3-4.1-16.9-1.6-5.8-5.2-10.5-9.4-14.6L606.8,660.9C605.9,660.1,605,659.5,604.3,658.8Z" fill="#83b735"/>
    </g>
  </g>
</svg>
