<?xml version="1.0" encoding="utf-8"?>
<!-- Svg Vector Icons : http://www.onlinewebfonts.com/icon -->
<!DOCTYPE svg PUBLIC "-//W3C//DTD SVG 1.1//EN" "http://www.w3.org/Graphics/SVG/1.1/DTD/svg11.dtd">
<svg version="1.1" xmlns="http://www.w3.org/2000/svg" xmlns:xlink="http://www.w3.org/1999/xlink" x="0px" y="0px" viewBox="0 0 1000 1000" enable-background="new 0 0 1000 1000" xml:space="preserve">
<metadata> Svg Vector Icons : http://www.onlinewebfonts.com/icon </metadata>
<g><path d="M500,10C229.5,10,10,229.3,10,500c0,270.7,219.5,490,490,490c270.5,0,490-219.3,490-490C990,229.3,770.5,10,500,10z M577.5,796.4H427.3V675.7h150.3V796.4z M577.5,434.2c0,12.2-1.3,27.9-3.7,47.5c-2.4,12.2-18.3,153.7-18.3,153.7h-110c0,0-24.4-186.6-22-201.2V192.7h154L577.5,434.2L577.5,434.2z"/></g>
</svg>