<?xml version="1.0" encoding="utf-8"?>
<!-- Svg Vector Icons : http://www.onlinewebfonts.com/icon -->
<!DOCTYPE svg PUBLIC "-//W3C//DTD SVG 1.1//EN" "http://www.w3.org/Graphics/SVG/1.1/DTD/svg11.dtd">
<svg version="1.1" xmlns="http://www.w3.org/2000/svg" xmlns:xlink="http://www.w3.org/1999/xlink" x="0px" y="0px" viewBox="0 0 1000 1000" enable-background="new 0 0 1000 1000" xml:space="preserve">
<metadata> Svg Vector Icons : http://www.onlinewebfonts.com/icon </metadata>
<g><g transform="translate(0.000000,511.000000) scale(0.100000,-0.100000)"><path d="M5567.6,4987.7c-78.8-15.3-2661.2-1007.5-3443.1-1322.9l-131.4-52.6l2678.7-2.2c1471.9,0,2676.5,8.8,2676.5,17.5c0,37.2-262.8,670.2-315.4,757.8c-70.1,118.3-297.9,330.7-457.8,427.1c-67.9,39.4-205.9,100.8-304.5,135.8c-153.3,52.6-214.6,63.5-389.9,61.3C5766.9,5007.4,5626.8,4998.6,5567.6,4987.7z"/><path d="M635.1,2889.4c-197.1-48.2-376.7-197.1-470.9-385.5l-54.8-109.5L102.8-902C96.3-4575.2,87.5-4314.5,247.4-4527c52.6-70.1,129.2-133.6,223.4-184l142.4-78.8h4041.1h4041.1l111.7,59.2c166.5,87.6,234.4,153.3,317.6,306.6l74.5,138l6.6,619.8l6.6,617.7H7738.2c-1660.2,0-1651.5,0-1966.9,157.7c-363.6,181.8-650.5,552-733.8,950.6c-46,219-46,1769.7,0,1991c83.2,398.6,372.4,771,733.8,950.6c317.6,155.5,308.8,155.5,1966.9,155.5h1474.1l-6.6,619.8l-6.6,617.7l-78.8,142.4c-50.4,92-113.9,170.8-181.8,221.2c-214.6,162.1,124.8,151.1-4282,148.9C2481.5,2904.7,672.3,2898.1,635.1,2889.4z"/><path d="M6187.5,418.7c-216.8-74.5-372.3-234.4-446.8-451.2c-52.6-155.5-52.6-1664.6,0-1828.9c54.8-166.5,173-306.6,337.3-396.4l142.4-78.9h1587.9h1588l138,74.5c153.3,83.2,219,151.1,306.6,317.6l59.1,111.7v887.1v887.1l-59.1,111.7c-87.6,166.5-153.3,234.4-306.6,317.6l-138,74.5l-1555.1,4.4C6470,453.8,6275.1,449.4,6187.5,418.7z M7403.1-312.8c138-65.7,271.6-197.1,339.5-337.3c41.6-87.6,52.6-144.6,52.6-295.7c2.2-170.8-4.4-197.1-72.3-324.2c-83.2-153.3-151.1-219-317.6-306.6c-96.4-50.4-138-59.1-297.9-56.9c-151.1,0-208.1,11-295.7,52.6c-569.5,276-521.3,1084.2,76.7,1301C7026.3-229.6,7260.7-245,7403.1-312.8z"/></g></g>
</svg>